<?xml version="1.0" encoding="UTF-8" standalone="no"?>
<!DOCTYPE svg PUBLIC "-//W3C//DTD SVG 20010904//EN" "http://www.w3.org/TR/2001/REC-SVG-20010904/DTD/svg10.dtd">
<svg xmlns="http://www.w3.org/2000/svg"
  viewBox="0 0 1879 211" fill="white">
  <path id="Selection" style='fill:inherit'
    d="M 278.00,0.00
           C 278.00,0.00 317.00,0.00 317.00,0.00
             317.00,0.00 317.00,34.00 317.00,34.00
             317.00,34.00 278.00,34.00 278.00,34.00
             278.00,34.00 278.00,0.00 278.00,0.00 Z
           M 458.00,33.00
           C 451.32,33.00 442.77,33.35 437.04,29.30
             428.54,23.30 429.05,8.39 438.02,3.09
             442.30,0.55 448.13,0.02 453.00,0.00
             453.00,0.00 491.00,0.00 491.00,0.00
             491.00,0.00 491.00,109.00 491.00,109.00
             491.00,109.00 507.00,96.40 507.00,96.40
             508.83,94.93 513.08,91.83 514.01,89.83
             515.69,86.23 511.76,83.04 512.22,77.00
             513.20,64.13 524.44,62.02 535.00,62.00
             535.00,62.00 580.00,62.90 580.00,62.90
             588.21,64.97 593.57,71.26 592.66,80.00
             591.18,94.24 579.21,94.80 568.00,95.00
             560.07,95.15 556.95,99.24 551.00,104.00
             545.02,108.78 528.82,122.38 523.00,125.00
             527.35,131.06 534.30,136.33 540.00,141.28
             540.00,141.28 564.00,162.42 564.00,162.42
             570.91,168.38 573.41,172.93 583.00,173.00
             594.61,173.08 608.29,175.98 606.80,191.00
             605.93,199.78 600.22,204.04 592.00,205.77
             592.00,205.77 549.00,205.77 549.00,205.77
             542.02,205.99 534.29,205.62 529.39,199.90
             526.01,195.95 525.16,189.92 526.65,185.00
             527.81,181.14 530.31,179.44 529.05,176.72
             528.07,174.59 522.95,170.57 521.00,168.85
             521.00,168.85 503.00,152.93 503.00,152.93
             499.67,149.90 497.41,146.38 493.28,150.67
             491.02,152.99 491.06,154.97 491.00,158.00
             491.00,158.00 491.00,183.00 491.00,183.00
             491.00,183.00 491.00,206.00 491.00,206.00
             491.00,206.00 454.00,206.00 454.00,206.00
             448.77,205.99 442.64,205.65 438.02,202.91
             428.93,197.55 428.68,182.80 437.09,176.70
             442.67,172.65 451.45,173.00 458.00,173.00
             458.00,173.00 458.00,33.00 458.00,33.00 Z
           M 914.00,0.00
           C 914.00,0.00 953.00,0.00 953.00,0.00
             953.00,0.00 953.00,34.00 953.00,34.00
             953.00,34.00 914.00,34.00 914.00,34.00
             914.00,34.00 914.00,0.00 914.00,0.00 Z
           M 1137.00,33.00
           C 1126.88,33.00 1103.83,34.93 1096.02,29.35
             1087.97,23.61 1086.81,11.33 1094.33,4.56
             1098.38,0.91 1104.76,0.07 1110.00,0.00
             1110.00,0.00 1170.00,0.00 1170.00,0.00
             1170.00,0.00 1170.00,173.00 1170.00,173.00
             1170.00,173.00 1210.00,173.00 1210.00,173.00
             1215.41,173.07 1220.63,173.83 1224.96,177.39
             1232.00,183.19 1232.55,194.48 1225.89,200.79
             1220.77,205.65 1214.63,205.99 1208.00,206.00
             1208.00,206.00 1097.00,206.00 1097.00,206.00
             1085.43,205.86 1075.90,201.06 1076.76,188.00
             1077.31,179.57 1083.05,174.97 1091.00,173.23
             1091.00,173.23 1137.00,173.23 1137.00,173.23
             1137.00,173.23 1137.00,33.00 1137.00,33.00 Z
           M 1349.00,33.00
           C 1338.88,33.00 1315.83,34.93 1308.02,29.35
             1299.97,23.61 1298.81,11.33 1306.33,4.56
             1310.38,0.91 1316.76,0.07 1322.00,0.00
             1322.00,0.00 1382.00,0.00 1382.00,0.00
             1382.00,0.00 1382.00,173.00 1382.00,173.00
             1382.00,173.00 1422.00,173.00 1422.00,173.00
             1427.41,173.07 1432.63,173.83 1436.96,177.39
             1444.00,183.19 1444.55,194.48 1437.89,200.79
             1432.77,205.65 1426.63,205.99 1420.00,206.00
             1420.00,206.00 1309.00,206.00 1309.00,206.00
             1297.43,205.86 1287.90,201.06 1288.76,188.00
             1289.31,179.57 1295.05,174.97 1303.00,173.23
             1303.00,173.23 1349.00,173.23 1349.00,173.23
             1349.00,173.23 1349.00,33.00 1349.00,33.00 Z
           M 27.00,46.00
           C 20.00,46.00 10.91,46.47 5.33,41.44
             -1.63,35.18 -1.33,22.56 6.18,16.85
             10.18,13.82 16.12,13.06 21.00,13.00
             21.00,13.00 63.00,13.00 63.00,13.00
             69.55,13.00 79.14,12.41 85.00,15.45
             95.32,20.80 95.78,36.93 85.98,42.99
             79.67,46.90 67.41,46.00 60.00,46.00
             60.00,46.00 60.00,93.00 60.00,93.00
             60.00,93.00 98.00,61.75 98.00,61.75
             98.00,61.75 117.00,47.00 117.00,47.00
             114.67,45.81 112.62,45.03 111.09,42.78
             106.86,36.58 108.52,22.33 114.19,17.42
             118.77,13.44 126.22,13.01 132.00,13.00
             132.00,13.00 164.00,13.00 164.00,13.00
             175.82,13.14 185.87,17.23 184.90,31.00
             183.77,47.17 169.72,43.26 162.00,48.86
             162.00,48.86 131.00,75.72 131.00,75.72
             124.13,81.69 111.97,91.08 107.00,98.00
             125.18,104.96 144.14,133.88 152.75,151.00
             152.75,151.00 161.41,169.85 161.41,169.85
             164.16,174.02 168.62,172.91 173.00,173.01
             178.48,173.15 184.48,174.48 188.47,178.53
             195.69,185.85 193.38,199.52 183.99,203.79
             176.57,207.16 157.83,206.02 149.00,206.00
             146.94,206.00 143.39,206.26 141.70,205.01
             140.14,203.85 138.64,199.84 137.85,198.00
             137.85,198.00 131.14,183.00 131.14,183.00
             122.73,164.12 109.26,138.35 92.00,126.75
             89.36,124.97 83.19,121.10 80.00,121.57
             77.07,122.00 73.25,125.80 71.00,127.73
             63.18,134.42 60.02,134.58 60.00,145.00
             60.00,145.00 60.00,173.00 60.00,173.00
             67.41,173.00 79.67,172.10 85.98,176.01
             95.78,182.07 95.32,198.20 85.00,203.55
             79.14,206.59 69.55,206.00 63.00,206.00
             63.00,206.00 21.00,206.00 21.00,206.00
             16.12,205.94 10.18,205.18 6.18,202.15
             -0.93,196.75 -1.73,184.87 4.53,178.53
             10.51,172.47 19.23,173.00 27.00,173.00
             27.00,173.00 27.00,46.00 27.00,46.00 Z
           M 663.00,46.00
           C 656.00,46.00 646.91,46.47 641.33,41.44
             634.37,35.18 634.67,22.56 642.18,16.85
             646.18,13.82 652.12,13.06 657.00,13.00
             657.00,13.00 699.00,13.00 699.00,13.00
             705.55,13.00 715.14,12.41 721.00,15.45
             731.32,20.80 731.78,36.93 721.98,42.99
             715.67,46.90 703.41,46.00 696.00,46.00
             696.00,46.00 696.00,93.00 696.00,93.00
             696.00,93.00 734.00,61.75 734.00,61.75
             734.00,61.75 753.00,47.00 753.00,47.00
             750.67,45.81 748.62,45.03 747.09,42.78
             742.86,36.58 744.52,22.33 750.19,17.42
             754.77,13.44 762.22,13.01 768.00,13.00
             768.00,13.00 800.00,13.00 800.00,13.00
             811.82,13.14 821.87,17.23 820.90,31.00
             819.77,47.17 805.72,43.26 798.00,48.86
             798.00,48.86 767.00,75.72 767.00,75.72
             760.13,81.69 747.97,91.08 743.00,98.00
             761.18,104.96 780.14,133.88 788.75,151.00
             788.75,151.00 797.41,169.85 797.41,169.85
             800.16,174.02 804.62,172.91 809.00,173.01
             814.48,173.15 820.48,174.48 824.47,178.53
             831.69,185.85 829.38,199.52 819.99,203.79
             812.57,207.16 793.83,206.02 785.00,206.00
             782.94,206.00 779.39,206.26 777.70,205.01
             776.14,203.85 774.64,199.84 773.85,198.00
             773.85,198.00 767.14,183.00 767.14,183.00
             758.73,164.12 745.26,138.35 728.00,126.75
             725.36,124.97 719.19,121.10 716.00,121.57
             713.07,122.00 709.25,125.80 707.00,127.73
             699.18,134.42 696.02,134.58 696.00,145.00
             696.00,145.00 696.00,173.00 696.00,173.00
             703.41,173.00 715.67,172.10 721.98,176.01
             731.78,182.07 731.32,198.20 721.00,203.55
             715.14,206.59 705.55,206.00 699.00,206.00
             699.00,206.00 657.00,206.00 657.00,206.00
             652.12,205.94 646.18,205.18 642.18,202.15
             635.07,196.75 634.27,184.87 640.53,178.53
             646.51,172.47 655.23,173.00 663.00,173.00
             663.00,173.00 663.00,46.00 663.00,46.00 Z
           M 1526.00,150.00
           C 1534.81,169.73 1555.52,177.90 1576.00,178.00
             1592.14,178.08 1604.44,175.15 1620.00,171.79
             1620.00,171.79 1642.00,167.09 1642.00,167.09
             1659.80,166.06 1665.37,187.98 1651.00,197.01
             1642.71,202.22 1621.15,206.40 1611.00,208.08
             1568.85,215.06 1520.38,212.07 1498.26,169.00
             1494.71,162.09 1492.64,155.68 1491.53,148.00
             1490.20,140.10 1490.22,128.87 1491.53,121.00
             1501.64,64.32 1569.53,44.41 1617.00,67.76
             1623.20,70.81 1627.58,72.97 1633.00,77.46
             1638.20,81.78 1643.00,88.26 1646.58,94.00
             1659.97,115.47 1659.00,126.01 1659.00,150.00
             1659.00,150.00 1526.00,150.00 1526.00,150.00 Z
           M 1783.00,82.00
           C 1803.35,69.27 1823.11,52.48 1849.00,59.75
             1862.78,63.61 1886.89,79.10 1875.15,95.96
             1873.98,97.64 1872.64,98.98 1870.96,100.15
             1855.75,110.75 1846.80,89.89 1835.00,91.37
             1831.52,91.80 1826.19,94.61 1823.00,96.26
             1814.27,100.77 1801.85,110.02 1794.00,116.21
             1786.14,122.41 1783.02,122.91 1783.00,133.00
             1783.00,133.00 1783.00,173.00 1783.00,173.00
             1783.00,173.00 1821.00,173.00 1821.00,173.00
             1828.06,173.00 1836.58,172.31 1842.98,175.68
             1852.13,180.50 1853.56,194.65 1845.79,201.44
             1841.03,205.60 1833.99,205.99 1828.00,206.00
             1828.00,206.00 1732.00,206.00 1732.00,206.00
             1726.31,205.99 1719.88,205.67 1715.10,202.15
             1707.21,196.33 1707.21,182.67 1715.10,176.85
             1722.45,171.45 1740.70,173.00 1750.00,173.00
             1750.00,173.00 1750.00,95.00 1750.00,95.00
             1742.58,95.00 1730.34,95.90 1724.02,91.99
             1714.07,85.84 1714.59,69.85 1725.00,64.45
             1730.72,61.49 1739.65,62.00 1746.00,62.00
             1746.00,62.00 1783.00,62.00 1783.00,62.00
             1783.00,62.00 1783.00,82.00 1783.00,82.00 Z
           M 289.00,95.00
           C 278.83,95.00 254.86,96.86 247.10,91.15
             239.55,85.59 239.19,72.69 246.21,66.56
             250.34,62.95 256.72,62.07 262.00,62.00
             262.00,62.00 322.00,62.00 322.00,62.00
             322.00,62.00 322.00,173.00 322.00,173.00
             322.00,173.00 360.00,173.00 360.00,173.00
             365.21,173.01 370.40,173.13 374.98,176.00
             383.64,181.41 384.65,194.96 376.90,201.61
             372.08,205.74 366.00,205.99 360.00,206.00
             360.00,206.00 249.00,206.00 249.00,206.00
             238.08,205.87 227.00,200.92 228.34,188.00
             229.25,179.20 234.72,174.97 243.00,173.23
             243.00,173.23 289.00,173.23 289.00,173.23
             289.00,173.23 289.00,95.00 289.00,95.00 Z
           M 925.00,95.00
           C 914.83,95.00 890.86,96.86 883.10,91.15
             875.55,85.59 875.19,72.69 882.21,66.56
             886.34,62.95 892.72,62.07 898.00,62.00
             898.00,62.00 958.00,62.00 958.00,62.00
             958.00,62.00 958.00,173.00 958.00,173.00
             958.00,173.00 996.00,173.00 996.00,173.00
             1001.21,173.01 1006.40,173.13 1010.98,176.00
             1019.64,181.41 1020.65,194.96 1012.90,201.61
             1008.08,205.74 1002.00,205.99 996.00,206.00
             996.00,206.00 885.00,206.00 885.00,206.00
             874.08,205.87 863.00,200.92 864.34,188.00
             865.25,179.20 870.72,174.97 879.00,173.23
             879.00,173.23 925.00,173.23 925.00,173.23
             925.00,173.23 925.00,95.00 925.00,95.00 Z
           M 1623.00,117.00
           C 1605.81,81.99 1544.20,81.95 1527.00,117.00
             1527.00,117.00 1623.00,117.00 1623.00,117.00 Z" />
</svg>